<svg xmlns="http://www.w3.org/2000/svg" width="691.106" height="482.036" viewBox="0 0 691.106 482.036"><g transform="translate(-683 -159.894)"><path d="M195.016,92.306A102.067,102.067,0,1,0,297.082,194.373,102.191,102.191,0,0,0,195.016,92.306Zm0,174.972a72.9,72.9,0,1,1,72.9-72.9A72.9,72.9,0,0,1,195.016,267.278Zm0-204.134A14.585,14.585,0,0,0,209.6,48.563V19.4a14.581,14.581,0,1,0-29.162,0V48.563A14.585,14.585,0,0,0,195.016,63.144Zm113.4,38.427,20.618-20.618a14.576,14.576,0,0,0,0-20.618c-5.7-5.7-14.923-5.7-41.237,20.618a14.579,14.579,0,1,0,20.618,20.618Zm61.57,78.221H340.826a14.581,14.581,0,1,0,0,29.162h29.162a14.581,14.581,0,1,0,0-29.162ZM81.595,101.571a14.579,14.579,0,0,0,20.618-20.618L81.595,60.334A14.579,14.579,0,1,0,60.976,80.953ZM308.437,287.155a14.579,14.579,0,0,0-20.618,20.618l20.618,20.618a14.579,14.579,0,0,0,20.618-20.618Z" transform="translate(989.537 155.074)" fill="#ffe240"/><path d="M461.814,150.79C445.143,68.654,373.72,6.75,286.823,6.75c-69.041,0-128.563,39.281-158.321,96.423C57.077,110.318,1.125,171.024,1.125,244.831c0,78.562,64.287,142.849,142.849,142.849H453.48c65.472,0,119.041-53.568,119.041-119.042A117.587,117.587,0,0,0,461.814,150.79ZM453.48,340.064H143.974c-52.383,0-95.233-42.85-95.233-95.233S91.591,149.6,143.974,149.6h16.67a131.057,131.057,0,0,1,257.123,35.712v11.9H453.48a71.424,71.424,0,1,1,0,142.849Z" transform="translate(681.875 254.25)" fill="#038ecc"/></g></svg>